<svg width="256" height="256" viewBox="0 0 256 256" fill="none" xmlns="http://www.w3.org/2000/svg">
<g clip-path="url(#clip0_897_2209)">
<g filter="url(#filter0_d_897_2209)">
<path d="M195.742 97.6359C207.06 97.6359 217.734 100.418 227.146 105.306C222.007 78.8823 212.646 56.958 207.12 47.8025C198.34 33.2567 166.104 23.6934 155.623 34.1746C145.141 44.6561 115.396 43.6107 115.396 43.6107C115.396 43.6107 85.65 44.6588 75.1689 34.1772C64.6873 23.6956 32.4518 33.2589 23.6719 47.8047C14.8946 62.3488 -3.58361 109.13 0.610428 154.991C4.80447 200.852 26.2941 186.177 43.8513 171.763C61.4085 157.349 67.1771 144.769 115.396 144.769C121.021 144.769 126.047 144.947 130.601 145.272C139.402 117.678 165.27 97.6359 195.742 97.6359Z" fill="#FBF4A1"/>
<path d="M228.893 115.682C219.384 109.403 207.993 105.738 195.742 105.738C169.44 105.738 147.089 122.596 138.865 146.09C136.683 152.323 135.484 159.018 135.484 165.996C135.484 199.277 162.461 226.255 195.742 226.255C229.023 226.255 256 199.275 256 165.996C256 144.966 245.222 126.464 228.893 115.682ZM233.536 175.468C233.536 176.959 232.329 178.168 230.835 178.168H224.561H210.612C209.121 178.168 207.912 179.378 207.912 180.869V185.09V201.089C207.912 202.58 206.702 203.79 205.211 203.79H186.268C184.778 203.79 183.567 202.58 183.567 201.089V180.866C183.567 179.376 182.358 178.166 180.867 178.166H160.647C159.153 178.166 157.946 176.956 157.946 175.465V156.525C157.946 155.034 159.153 153.825 160.647 153.825H164.463H180.87C182.361 153.825 183.57 152.615 183.57 151.124V130.901C183.57 129.41 184.78 128.2 186.271 128.2H205.214C206.705 128.2 207.914 129.41 207.914 130.901V151.124C207.914 152.615 209.124 153.825 210.615 153.825H230.271H230.835C232.329 153.825 233.536 155.034 233.536 156.525V175.468Z" fill="#CADB63"/>
</g>
</g>
<defs>
<filter id="filter0_d_897_2209" x="-4" y="29.7451" width="264" height="204.51" filterUnits="userSpaceOnUse" color-interpolation-filters="sRGB">
<feFlood flood-opacity="0" result="BackgroundImageFix"/>
<feColorMatrix in="SourceAlpha" type="matrix" values="0 0 0 0 0 0 0 0 0 0 0 0 0 0 0 0 0 0 127 0" result="hardAlpha"/>
<feOffset dy="4"/>
<feGaussianBlur stdDeviation="2"/>
<feComposite in2="hardAlpha" operator="out"/>
<feColorMatrix type="matrix" values="0 0 0 0 0 0 0 0 0 0 0 0 0 0 0 0 0 0 0.25 0"/>
<feBlend mode="normal" in2="BackgroundImageFix" result="effect1_dropShadow_897_2209"/>
<feBlend mode="normal" in="SourceGraphic" in2="effect1_dropShadow_897_2209" result="shape"/>
</filter>
<clipPath id="clip0_897_2209">
<rect width="256" height="256" fill="white"/>
</clipPath>
</defs>
</svg>
