<svg width="40" height="40" viewBox="0 0 40 40" fill="none" xmlns="http://www.w3.org/2000/svg">
<path d="M28.3332 29.9997C26.4832 29.9997 24.9998 31.483 24.9998 33.333C24.9998 34.2171 25.351 35.0649 25.9762 35.69C26.6013 36.3152 27.4491 36.6663 28.3332 36.6663C29.2172 36.6663 30.0651 36.3152 30.6902 35.69C31.3153 35.0649 31.6665 34.2171 31.6665 33.333C31.6665 31.483 30.1665 29.9997 28.3332 29.9997ZM1.6665 3.33301V6.66634H4.99984L10.9998 19.3163L8.73317 23.3997C8.48317 23.8663 8.33317 24.4163 8.33317 24.9997C8.33317 25.8837 8.68436 26.7316 9.30948 27.3567C9.9346 27.9818 10.7824 28.333 11.6665 28.333H31.6665V24.9997H12.3665C12.256 24.9997 12.15 24.9558 12.0719 24.8776C11.9937 24.7995 11.9498 24.6935 11.9498 24.583C11.9498 24.4997 11.9665 24.433 11.9998 24.383L13.4998 21.6663H25.9165C27.1665 21.6663 28.2665 20.9663 28.8332 19.9497L34.7998 9.16634C34.9165 8.89967 34.9998 8.61634 34.9998 8.33301C34.9998 7.89098 34.8242 7.46706 34.5117 7.1545C34.1991 6.84194 33.7752 6.66634 33.3332 6.66634H8.68317L7.1165 3.33301M11.6665 29.9997C9.8165 29.9997 8.33317 31.483 8.33317 33.333C8.33317 34.2171 8.68436 35.0649 9.30948 35.69C9.9346 36.3152 10.7824 36.6663 11.6665 36.6663C12.5506 36.6663 13.3984 36.3152 14.0235 35.69C14.6486 35.0649 14.9998 34.2171 14.9998 33.333C14.9998 31.483 13.4998 29.9997 11.6665 29.9997Z" fill="#FBF4A1" fill-opacity="0.1"/>
</svg>
