<svg width="49" height="48" viewBox="0 0 49 48" fill="none" xmlns="http://www.w3.org/2000/svg">
<path d="M41.135 8.72112C38.0226 7.29269 34.7383 6.27322 31.364 5.68812C31.3335 5.68297 31.302 5.68742 31.2741 5.70085C31.2462 5.71428 31.2231 5.73603 31.208 5.76312C30.785 6.51312 30.317 7.49412 29.99 8.26212C26.3528 7.71014 22.6532 7.71014 19.016 8.26212C18.6513 7.40657 18.2386 6.57225 17.78 5.76312C17.7646 5.73633 17.7415 5.71482 17.7136 5.70144C17.6858 5.68805 17.6546 5.68341 17.624 5.68812C14.2492 6.27084 10.9646 7.29041 7.85302 8.72112C7.8264 8.73128 7.80413 8.75037 7.79002 8.77512C1.56802 18.0721 -0.138982 27.1411 0.698018 36.0961C0.701018 36.1381 0.728018 36.1801 0.761018 36.2071C4.38422 38.8909 8.43681 40.94 12.746 42.2671C12.7764 42.2767 12.8091 42.2764 12.8393 42.2661C12.8696 42.2559 12.8957 42.2362 12.914 42.2101C13.838 40.9501 14.66 39.6211 15.368 38.2231C15.3778 38.204 15.3834 38.1831 15.3844 38.1617C15.3854 38.1403 15.3818 38.1189 15.3738 38.099C15.3658 38.0791 15.3537 38.0611 15.3382 38.0463C15.3227 38.0315 15.3042 38.0202 15.284 38.0131C13.9915 37.5164 12.7397 36.9195 11.54 36.2281C11.5181 36.2154 11.4997 36.1975 11.4864 36.176C11.4731 36.1544 11.4654 36.1299 11.4639 36.1047C11.4624 36.0794 11.4672 36.0541 11.4779 36.0312C11.4885 36.0082 11.5047 35.9883 11.525 35.9731C11.777 35.7841 12.029 35.5861 12.269 35.3881C12.2902 35.3711 12.3157 35.3601 12.3426 35.3564C12.3696 35.3527 12.397 35.3564 12.422 35.3671C20.279 38.9551 28.784 38.9551 36.545 35.3671C36.5709 35.3556 36.5994 35.3514 36.6275 35.3551C36.6556 35.3588 36.6821 35.3702 36.704 35.3881C36.944 35.5861 37.196 35.7841 37.448 35.9731C37.4684 35.988 37.4848 36.0078 37.4958 36.0306C37.5067 36.0534 37.5118 36.0786 37.5106 36.1038C37.5094 36.1291 37.502 36.1537 37.4889 36.1754C37.4759 36.1971 37.4578 36.2152 37.436 36.2281C36.239 36.9258 34.9856 37.5219 33.689 38.0101C33.6689 38.0178 33.6507 38.0297 33.6356 38.0449C33.6204 38.0602 33.6086 38.0784 33.601 38.0985C33.5933 38.1186 33.59 38.1401 33.5912 38.1616C33.5924 38.183 33.5982 38.204 33.608 38.2231C34.328 39.6181 35.153 40.9501 36.059 42.2101C36.0773 42.2362 36.1035 42.2559 36.1337 42.2661C36.1639 42.2764 36.1966 42.2767 36.227 42.2671C40.5434 40.9442 44.6026 38.8948 48.23 36.2071C48.248 36.1944 48.263 36.1778 48.2739 36.1587C48.2848 36.1395 48.2913 36.1181 48.293 36.0961C49.295 25.7431 46.616 16.7491 41.195 8.77812C41.1896 8.76495 41.1814 8.75308 41.1711 8.74326C41.1607 8.73344 41.1484 8.7259 41.135 8.72112ZM16.541 30.6421C14.174 30.6421 12.227 28.4701 12.227 25.8061C12.227 23.1391 14.138 20.9671 16.541 20.9671C18.962 20.9671 20.891 23.1571 20.855 25.8061C20.855 28.4701 18.944 30.6421 16.541 30.6421ZM32.489 30.6421C30.125 30.6421 28.175 28.4701 28.175 25.8061C28.175 23.1391 30.086 20.9671 32.489 20.9671C34.91 20.9671 36.842 23.1571 36.803 25.8061C36.803 28.4701 34.91 30.6421 32.489 30.6421Z" fill="#FBF4A1"/>
</svg>
