<svg width="40" height="40" viewBox="0 0 40 40" fill="none" xmlns="http://www.w3.org/2000/svg">
<path d="M31.6667 5.00033H24.7C24 3.06699 22.1667 1.66699 20 1.66699C17.8333 1.66699 16 3.06699 15.3 5.00033H8.33333C6.5 5.00033 5 6.50033 5 8.33366V31.667C5 33.5003 6.5 35.0003 8.33333 35.0003H31.6667C33.5 35.0003 35 33.5003 35 31.667V8.33366C35 6.50033 33.5 5.00033 31.6667 5.00033ZM11.6667 13.3337H15V20.0003H13.3333V15.0003H11.6667V13.3337ZM16.6667 28.3337V30.0003H11.6667V28.467L15 25.0003H11.6667V23.3337H15.4167C16.1 23.3337 16.6667 23.9003 16.6667 24.5837C16.6667 24.917 16.5333 25.2337 16.3167 25.4503L13.5333 28.3337H16.6667ZM18.3333 6.66699C18.3333 5.75033 19.0833 5.00033 20 5.00033C20.9167 5.00033 21.6667 5.75033 21.6667 6.66699C21.6667 7.58366 20.9167 8.33366 20 8.33366C19.0833 8.33366 18.3333 7.58366 18.3333 6.66699ZM28.3333 28.3337H20V25.0003H28.3333V28.3337ZM28.3333 18.3337H20V15.0003H28.3333V18.3337Z" fill="#FBF4A1" fill-opacity="0.1"/>
</svg>
