<svg width="195" height="29" viewBox="0 0 195 29" fill="none" xmlns="http://www.w3.org/2000/svg">
<path d="M9.11777 18.1515C8.91164 18.1515 8.74675 17.9883 8.74675 17.7843V13.4191C8.74675 13.2152 8.91164 13.052 9.11777 13.052H18.5582C18.7643 13.052 18.9292 13.2152 18.9292 13.4191V19.8242C18.9292 25.8212 15.6725 28.3506 9.53001 28.3506C3.79978 28.3506 0.0483398 26.1068 0.0483398 19.8242V9.09474C0.0483398 3.17927 3.38754 0.649902 9.53001 0.649902C15.3015 0.649902 18.9292 2.8529 18.9292 9.09474V9.95146C18.9292 10.1554 18.7643 10.3186 18.5582 10.3186H13.8174C13.6113 10.3186 13.4464 10.1554 13.4464 9.95146V9.42111C13.4464 6.93253 11.8386 6.11661 9.73614 6.11661H9.24144C7.88103 6.11661 6.97408 6.48377 6.35571 7.2997C5.77857 8.07483 5.57245 9.09473 5.57245 10.441V18.5187C5.57245 22.068 7.51001 22.8431 9.24144 22.8431H9.73614C12.2508 22.8431 13.4464 21.1296 13.4464 18.5187V18.1515H9.11777ZM2.56304 19.5386C2.56304 24.067 4.78918 25.7396 9.48879 25.7396C14.4357 25.7396 16.4558 23.6998 16.4558 18.6819V15.6221C16.4558 15.4998 16.3733 15.3366 16.2909 15.3366H10.5606C10.1896 15.3366 10.2721 15.8669 10.5606 15.8669H15.9611V18.6819C15.9611 23.0471 14.2709 25.2909 9.48879 25.2909C5.53122 25.2909 3.05774 23.9038 3.05774 19.5386V9.70668C3.05774 5.50466 4.9953 3.62803 9.48879 3.62803C12.828 3.62803 15.8786 5.46386 15.6313 8.27881C15.6313 8.60518 16.0847 8.68677 16.1672 8.31961C16.1672 4.72953 12.8692 3.17927 9.48879 3.17927C5.36632 3.17927 2.56304 4.64794 2.56304 9.70668V19.5386ZM31.0905 1.26185C31.1317 1.13946 31.2142 1.01707 31.3791 1.01707H36.4909C36.6558 1.01707 36.7383 1.13946 36.7795 1.26185L43.9114 27.4939C43.9526 27.7386 43.7877 27.9426 43.5404 27.9426H38.8408C38.7171 27.9426 38.5934 27.861 38.5522 27.6978L36.9444 21.9864H30.9256L29.3591 27.6978C29.3179 27.861 29.2354 27.9426 29.0705 27.9426H24.3297C24.0823 27.9426 23.9174 27.7386 23.9586 27.4939L31.0905 1.26185ZM32.2448 16.9276H35.6665L33.8938 10.7674L32.2448 16.9276ZM38.5934 19.3346L40.4897 25.454C40.5722 25.6988 41.0257 25.658 40.902 25.3317L34.306 3.62803C34.1824 3.09768 33.4815 3.05688 33.3579 3.62803L26.968 25.3317C26.8444 25.6172 27.2978 25.7396 27.4215 25.4948L29.2354 19.3346H38.5934ZM29.3591 18.8043L33.8526 3.79122L38.4285 18.8043H29.3591ZM72.4389 1.01707C72.645 1.01707 72.8099 1.18025 72.8099 1.38424V27.5755C72.8099 27.7794 72.645 27.9426 72.4389 27.9426H67.9454C67.8217 27.9426 67.6156 27.7794 67.6156 27.5755V12.4808L63.0809 27.6978C62.9984 27.861 62.916 27.9426 62.7511 27.9426H59.4943C59.3706 27.9426 59.2057 27.861 59.1645 27.6978L54.9184 12.1953V27.5755C54.9184 27.7794 54.7535 27.9426 54.5473 27.9426H49.9714C49.8065 27.9426 49.6828 27.7794 49.6828 27.5755V1.38424C49.6828 1.18025 49.8065 1.01707 49.9714 1.01707H55.7429C55.9078 1.01707 56.0727 1.13946 56.1139 1.26185L61.1021 17.7843L66.585 1.26185C66.585 1.13946 66.7086 1.01707 66.8735 1.01707H72.4389ZM69.8829 25.454C69.8829 25.7396 70.4188 25.8212 70.4188 25.454V3.46485C70.4188 3.38325 70.2952 3.26087 70.1715 3.26087H68.2339C68.069 3.26087 68.0278 3.38325 67.9454 3.46485L61.1021 23.659L54.3 3.42405C54.3 3.30166 54.2176 3.26087 54.0939 3.26087H52.0739C51.9502 3.26087 51.8265 3.38326 51.8265 3.50564V25.454C51.8265 25.7396 52.3624 25.8212 52.3624 25.454V3.79122H53.8878L60.8547 24.5157C61.0196 24.8013 61.1433 24.7197 61.3494 24.5157L68.3576 3.79122H69.8829V25.454ZM80.8899 27.9426C80.6838 27.9426 80.5601 27.7794 80.5601 27.5755V1.38424C80.5601 1.18025 80.6838 1.01707 80.8899 1.01707H94.9063C95.1124 1.01707 95.2773 1.18025 95.2773 1.38424V5.74944C95.2773 5.95342 95.1124 6.11661 94.9063 6.11661H86.0018V11.6649H92.9275C93.1336 11.6649 93.2573 11.8281 93.2573 12.0321V16.4789C93.2573 16.6828 93.1336 16.846 92.9275 16.846H86.0018V22.8431H94.9063C95.1124 22.8431 95.2773 23.0063 95.2773 23.2103V27.5755C95.2773 27.7794 95.1124 27.9426 94.9063 27.9426H80.8899ZM82.9512 3.58724V25.2909C82.9512 25.5356 83.116 25.6172 83.2809 25.6172H92.7626C93.1336 25.6172 93.0512 25.1277 92.7626 25.1277H83.4871V14.4798H91.0724C91.3198 14.4798 91.3198 13.9087 91.0724 13.9087H83.4871V3.79122H92.7626C93.0512 3.79122 93.1336 3.26087 92.7626 3.26087H83.2809C83.116 3.26087 82.9512 3.38326 82.9512 3.58724ZM110.778 18.1515C110.572 18.1515 110.407 17.9883 110.407 17.7843V13.4191C110.407 13.2152 110.572 13.052 110.778 13.052H120.218C120.424 13.052 120.589 13.2152 120.589 13.4191V19.8242C120.589 25.8212 117.333 28.3506 111.19 28.3506C105.46 28.3506 101.708 26.1068 101.708 19.8242V9.09474C101.708 3.17927 105.048 0.649902 111.19 0.649902C116.962 0.649902 120.589 2.8529 120.589 9.09474V9.95146C120.589 10.1554 120.424 10.3186 120.218 10.3186H115.477C115.271 10.3186 115.106 10.1554 115.106 9.95146V9.42111C115.106 6.93253 113.499 6.11661 111.396 6.11661H110.901C109.541 6.11661 108.634 6.48377 108.016 7.2997C107.439 8.07483 107.232 9.09473 107.232 10.441V18.5187C107.232 22.068 109.17 22.8431 110.901 22.8431H111.396C113.911 22.8431 115.106 21.1296 115.106 18.5187V18.1515H110.778ZM104.223 19.5386C104.223 24.067 106.449 25.7396 111.149 25.7396C116.096 25.7396 118.116 23.6998 118.116 18.6819V15.6221C118.116 15.4998 118.033 15.3366 117.951 15.3366H112.221C111.85 15.3366 111.932 15.8669 112.221 15.8669H117.621V18.6819C117.621 23.0471 115.931 25.2909 111.149 25.2909C107.191 25.2909 104.718 23.9038 104.718 19.5386V9.70668C104.718 5.50466 106.655 3.62803 111.149 3.62803C114.488 3.62803 117.539 5.46386 117.291 8.27881C117.291 8.60518 117.745 8.68677 117.827 8.31961C117.827 4.72953 114.529 3.17927 111.149 3.17927C107.026 3.17927 104.223 4.64794 104.223 9.70668V19.5386ZM136.543 0.649902C140.089 0.649902 142.562 1.42503 144.129 3.09768C145.365 4.44396 145.942 6.36138 145.942 9.09474V19.8242C145.942 22.6391 145.365 24.5973 144.129 25.9028C142.521 27.5347 140.089 28.3506 136.543 28.3506C132.874 28.3506 130.483 27.5347 128.917 25.9028C127.721 24.5973 127.062 22.6391 127.062 19.8242V9.09474C127.062 6.36138 127.721 4.44396 128.917 3.05688C130.524 1.42503 132.957 0.649902 136.543 0.649902ZM140.46 18.6003V10.441C140.46 6.85094 138.522 6.11661 136.749 6.11661H136.255C133.616 6.11661 132.586 7.78925 132.586 10.441V18.6003C132.586 22.1903 134.523 22.9655 136.255 22.9655H136.749C139.388 22.9655 140.418 21.2112 140.46 18.6003ZM129.659 9.38031V19.4978C129.659 21.4152 130.153 23.0063 131.308 24.1894C132.38 25.2501 134.028 25.8212 136.049 25.8212H137.12C140.995 25.8212 143.51 23.3734 143.51 19.4978V9.38031C143.51 5.21909 141.284 2.97529 137.12 2.97529H136.049C131.844 2.97529 129.659 5.21909 129.659 9.38031ZM137.12 25.2909H136.049C134.111 25.2909 132.668 24.8013 131.637 23.7814C130.607 22.7615 130.071 21.3336 130.071 19.4978V9.38031C130.071 5.50466 132.173 3.46485 136.049 3.46485H137.12C141.037 3.46485 142.974 5.46386 142.974 9.38031V19.4978C142.974 21.2112 142.438 22.7615 141.325 23.8222C140.253 24.7197 138.811 25.2909 137.12 25.2909ZM161.69 18.1515C161.484 18.1515 161.319 17.9883 161.319 17.7843V13.4191C161.319 13.2152 161.484 13.052 161.69 13.052H171.131C171.337 13.052 171.502 13.2152 171.502 13.4191V19.8242C171.502 25.8212 168.245 28.3506 162.102 28.3506C156.372 28.3506 152.621 26.1068 152.621 19.8242V9.09474C152.621 3.17927 155.96 0.649902 162.102 0.649902C167.874 0.649902 171.502 2.8529 171.502 9.09474V9.95146C171.502 10.1554 171.337 10.3186 171.131 10.3186H166.39C166.184 10.3186 166.019 10.1554 166.019 9.95146V9.42111C166.019 6.93253 164.411 6.11661 162.309 6.11661H161.814C160.454 6.11661 159.547 6.48377 158.928 7.2997C158.351 8.07483 158.145 9.09473 158.145 10.441V18.5187C158.145 22.068 160.082 22.8431 161.814 22.8431H162.309C164.823 22.8431 166.019 21.1296 166.019 18.5187V18.1515H161.69ZM155.136 19.5386C155.136 24.067 157.362 25.7396 162.061 25.7396C167.008 25.7396 169.028 23.6998 169.028 18.6819V15.6221C169.028 15.4998 168.946 15.3366 168.863 15.3366H163.133C162.762 15.3366 162.845 15.8669 163.133 15.8669H168.534V18.6819C168.534 23.0471 166.843 25.2909 162.061 25.2909C158.104 25.2909 155.63 23.9038 155.63 19.5386V9.70668C155.63 5.50466 157.568 3.62803 162.061 3.62803C165.4 3.62803 168.451 5.46386 168.204 8.27881C168.204 8.60518 168.657 8.68677 168.74 8.31961C168.74 4.72953 165.442 3.17927 162.061 3.17927C157.939 3.17927 155.136 4.64794 155.136 9.70668V19.5386ZM187.785 11.4201C190.919 12.8888 195 15.2142 195 19.4162C195 20.6401 194.794 23.0063 193.433 25.0053C191.908 27.2491 189.517 28.3506 186.219 28.3506C182.715 28.3506 178.634 26.6779 177.356 22.8839C177.314 22.7615 177.356 22.6391 177.479 22.5575L181.272 19.3346C181.437 19.2122 181.684 19.2122 181.808 19.4162C181.89 19.6202 182.055 19.9465 182.261 20.3545C182.88 21.6192 184.364 22.8839 186.013 22.8839C187.291 22.8839 189.022 22.1903 189.022 20.2321C189.022 18.3555 186.425 17.2948 184.817 16.6828C182.962 15.9485 181.066 15.0102 179.458 13.6231C177.768 12.0729 176.943 10.3594 176.943 8.31961C176.943 3.22007 181.684 0.649902 186.178 0.649902C189.723 0.649902 192.361 2.48574 194.093 6.11661C194.175 6.27979 194.093 6.48377 193.969 6.56537L190.3 9.09474C190.135 9.17633 190.053 9.17633 189.888 8.97235C188.486 6.97333 187.25 6.03501 185.601 6.03501C184.735 6.03501 182.715 6.36138 182.715 7.87085C182.715 9.70668 186.136 10.645 187.785 11.4201ZM180.283 22.6799C181.313 24.7197 184.158 25.9028 186.466 25.9028C189.476 25.9028 191.908 23.863 192.238 20.7625C192.65 16.9684 189.641 15.3366 186.672 13.8679L185.353 13.2968C182.303 11.9505 180.076 10.9306 180.076 8.11562C180.076 5.01511 182.962 3.58724 185.807 3.58724C188.404 3.58724 189.764 5.0967 190.465 6.03501C190.712 6.36138 191.125 6.07581 190.877 5.74944C190.177 4.89272 188.692 3.09768 185.807 3.09768C182.55 3.09768 179.582 4.68874 179.582 8.11562C179.582 11.1753 182.055 12.3584 185.188 13.7863L186.466 14.3983C190.548 16.3157 192.032 18.1107 191.702 20.7217C191.083 24.8829 187.868 25.4133 186.466 25.4133C183.374 25.4133 181.313 23.5774 180.695 22.4351C180.489 22.2311 180.2 22.4351 180.283 22.6799Z" fill="url(#paint0_linear_456_3642)"/>
<defs>
<linearGradient id="paint0_linear_456_3642" x1="0.0483398" y1="0.649902" x2="195" y2="0.649902" gradientUnits="userSpaceOnUse">
<stop stop-color="#8F5E25"/>
<stop offset="0.5" stop-color="#FBF4A1"/>
<stop offset="1" stop-color="#8F5E25"/>
</linearGradient>
</defs>
</svg>
