<svg width="248" height="9" viewBox="0 0 248 9" fill="none" xmlns="http://www.w3.org/2000/svg">
<path d="M3.87831e-05 8.76967V0.217843H1.40324V6.89652H5.19686V8.76998L3.87831e-05 8.76967ZM16.2737 7.1514H13.3765L12.8886 8.76967H11.3227L14.0421 0.217843H15.608L18.3275 8.76967H16.7616L16.2737 7.1514ZM13.8795 5.48335H15.7782L14.8326 2.334L13.8795 5.48335ZM39.3729 8.18461C39.1913 8.30909 39.0085 8.42107 38.8244 8.52066C38.6404 8.62024 38.45 8.70634 38.2533 8.77895C38.0566 8.85156 37.8492 8.90655 37.6311 8.94389C37.4131 8.98123 37.1792 8.99991 36.9295 8.99991C36.4 8.99991 35.9127 8.90655 35.4677 8.71983C35.0226 8.5331 34.6394 8.25199 34.3179 7.8765C33.9964 7.50101 33.7461 7.03209 33.5671 6.46989C33.3881 5.90769 33.2985 5.25104 33.2985 4.5C33.2985 3.74896 33.388 3.09231 33.5671 2.53011C33.7461 1.96791 33.9964 1.49896 34.3179 1.1235C34.6394 0.748046 35.0226 0.466852 35.4677 0.280175C35.9128 0.0934983 36.4 9.63386e-05 36.9295 9.63386e-05C37.1792 9.63386e-05 37.413 0.0187682 37.6311 0.0561125C37.8493 0.0934568 38.0566 0.148431 38.2533 0.22105C38.45 0.293668 38.6404 0.37976 38.8244 0.479344C39.0085 0.578929 39.1913 0.69096 39.3729 0.815439V2.89425C39.2291 2.76562 39.0778 2.63803 38.919 2.51147C38.7601 2.38491 38.5849 2.27081 38.3932 2.16915C38.2016 2.0675 37.9911 1.98451 37.7616 1.9202C37.5321 1.85588 37.2737 1.82372 36.9862 1.82372C36.5449 1.82372 36.1787 1.89841 35.8875 2.04779C35.5962 2.19716 35.3636 2.39633 35.1896 2.64529C35.0156 2.89425 34.8933 3.17952 34.8227 3.50111C34.7521 3.82271 34.7168 4.15572 34.7168 4.50008C34.7168 4.7283 34.732 4.9534 34.7622 5.1754C34.7925 5.39741 34.8429 5.60694 34.9135 5.80403C34.9841 6.00112 35.0761 6.18266 35.1896 6.34864C35.3031 6.51461 35.4443 6.65776 35.6132 6.77809C35.7822 6.89842 35.9795 6.99282 36.2052 7.06129C36.4308 7.12976 36.6912 7.16399 36.9862 7.16399C37.2737 7.16399 37.5321 7.1339 37.7616 7.07374C37.9911 7.01357 38.2016 6.9337 38.3932 6.83411C38.5849 6.73453 38.7601 6.62146 38.919 6.4949C39.0778 6.36834 39.2291 6.23868 39.3729 6.10591V8.18461ZM51.4328 8.76967V5.2033H47.8623V8.76967H46.4591V0.217843H47.8623V3.32984H51.4328V0.217843H52.836V8.76967H51.4328ZM64.416 7.1514H61.5188L61.0309 8.76967H59.465L62.1844 0.217843H63.7503L66.4698 8.76967H64.9039L64.416 7.1514ZM62.0218 5.48335H63.9205L62.9749 2.334L62.0218 5.48335ZM77.887 2.62654C77.7886 2.5477 77.6588 2.45846 77.4974 2.35888C77.336 2.25929 77.1532 2.16489 76.9489 2.07568C76.7447 1.98647 76.5228 1.91178 76.2832 1.85162C76.0437 1.79145 75.7979 1.76137 75.5457 1.76137C75.344 1.76137 75.1719 1.77175 75.0294 1.79249C74.887 1.81324 74.7672 1.8402 74.6701 1.87339C74.573 1.90659 74.4961 1.94497 74.4394 1.98854C74.3826 2.03211 74.3392 2.07671 74.3089 2.12235C74.2786 2.16799 74.2591 2.21363 74.2503 2.25927C74.2414 2.30491 74.237 2.34641 74.237 2.38375C74.237 2.50823 74.2749 2.61715 74.3505 2.71051C74.4261 2.80388 74.5295 2.88686 74.6606 2.95948C74.7918 3.0321 74.9443 3.10056 75.1183 3.16487C75.2923 3.22919 75.477 3.29558 75.6724 3.36404C75.8678 3.43251 76.0695 3.5072 76.2776 3.58811C76.4856 3.66902 76.6873 3.76342 76.8827 3.8713C77.0782 3.97918 77.2629 4.1047 77.4368 4.24785C77.6108 4.39101 77.7634 4.55802 77.8945 4.74889C78.0256 4.93976 78.129 5.15967 78.2046 5.40866C78.2803 5.65765 78.3181 5.94185 78.3181 6.26136C78.3181 6.67214 78.274 7.02483 78.1857 7.31947C78.0975 7.61411 77.9796 7.86303 77.8321 8.06637C77.6846 8.2697 77.5137 8.43255 77.3196 8.55496C77.1254 8.67736 76.9218 8.77177 76.7088 8.83816C76.4958 8.90455 76.2801 8.94812 76.062 8.96886C75.8439 8.98961 75.6365 8.99999 75.4398 8.99999C74.9255 8.99999 74.4495 8.93048 74.012 8.79148C73.5745 8.65247 73.1882 8.47925 72.8528 8.27178V6.23032C73.1982 6.54567 73.5922 6.79256 74.0347 6.97097C74.4773 7.14938 74.9507 7.2386 75.455 7.2386C75.7525 7.2386 75.9952 7.21267 76.1831 7.1608C76.371 7.10894 76.5178 7.04254 76.6237 6.96163C76.7296 6.88072 76.8015 6.79255 76.8393 6.69711C76.8771 6.60168 76.896 6.51039 76.896 6.42325C76.896 6.28633 76.8582 6.16703 76.7826 6.06537C76.7069 5.96372 76.6035 5.87451 76.4724 5.79775C76.3413 5.72099 76.1888 5.65045 76.0148 5.58614C75.8408 5.52182 75.6561 5.45751 75.4607 5.3932C75.2652 5.3289 75.0642 5.25939 74.8574 5.1847C74.6506 5.11001 74.4496 5.02183 74.2541 4.92018C74.0587 4.81852 73.874 4.70026 73.7 4.56541C73.526 4.43055 73.3735 4.2708 73.2424 4.08615C73.1113 3.90151 73.0079 3.68782 72.9322 3.44505C72.8566 3.20229 72.8188 2.9212 72.8188 2.60173C72.8188 2.22413 72.8591 1.89842 72.9398 1.62456C73.0205 1.35069 73.1295 1.1173 73.267 0.924376C73.4044 0.731453 73.5632 0.574789 73.7435 0.454465C73.9238 0.334142 74.1136 0.240778 74.3128 0.174386C74.512 0.107995 74.7137 0.0623547 74.9179 0.0374602C75.1222 0.0125657 75.3163 0.000116093 75.5004 0.000116093C75.7021 0.000116093 75.9095 0.0167156 76.1226 0.0499083C76.3356 0.0831009 76.5455 0.12978 76.7523 0.189951C76.9591 0.250122 77.1589 0.319624 77.3518 0.398463C77.5447 0.477302 77.7231 0.56029 77.887 0.647427L77.887 2.62654ZM90.2119 2.62654C90.1135 2.5477 89.9837 2.45846 89.8223 2.35888C89.6609 2.25929 89.4781 2.16489 89.2739 2.07568C89.0696 1.98647 88.8477 1.91178 88.6082 1.85162C88.3686 1.79145 88.1228 1.76137 87.8706 1.76137C87.6689 1.76137 87.4968 1.77175 87.3543 1.79249C87.2119 1.81324 87.0921 1.8402 86.995 1.87339C86.8979 1.90659 86.821 1.94497 86.7643 1.98854C86.7076 2.03211 86.6641 2.07671 86.6338 2.12235C86.6036 2.16799 86.584 2.21363 86.5752 2.25927C86.5664 2.30491 86.5619 2.34641 86.5619 2.38375C86.5619 2.50823 86.5998 2.61715 86.6754 2.71051C86.7511 2.80388 86.8544 2.88686 86.9856 2.95948C87.1167 3.0321 87.2692 3.10056 87.4432 3.16487C87.6172 3.22919 87.8019 3.29558 87.9973 3.36404C88.1928 3.43251 88.3945 3.5072 88.6025 3.58811C88.8105 3.66902 89.0122 3.76342 89.2076 3.8713C89.4031 3.97918 89.5878 4.1047 89.7618 4.24785C89.9358 4.39101 90.0883 4.55802 90.2194 4.74889C90.3505 4.93976 90.4539 5.15967 90.5296 5.40866C90.6052 5.65765 90.643 5.94185 90.643 6.26136C90.643 6.67214 90.5989 7.02483 90.5106 7.31947C90.4224 7.61411 90.3045 7.86303 90.157 8.06637C90.0095 8.2697 89.8386 8.43255 89.6445 8.55496C89.4504 8.67736 89.2467 8.77177 89.0337 8.83816C88.8207 8.90455 88.6051 8.94812 88.3869 8.96886C88.1688 8.98961 87.9614 8.99999 87.7648 8.99999C87.2504 8.99999 86.7745 8.93048 86.337 8.79148C85.8995 8.65247 85.5131 8.47925 85.1777 8.27178V6.23032C85.5231 6.54567 85.9171 6.79256 86.3597 6.97097C86.8022 7.14938 87.2756 7.2386 87.7799 7.2386C88.0774 7.2386 88.3201 7.21267 88.508 7.1608C88.6959 7.10894 88.8427 7.04254 88.9486 6.96163C89.0545 6.88072 89.1264 6.79255 89.1642 6.69711C89.2021 6.60168 89.221 6.51039 89.221 6.42325C89.221 6.28633 89.1831 6.16703 89.1075 6.06537C89.0318 5.96372 88.9285 5.87451 88.7973 5.79775C88.6662 5.72099 88.5137 5.65045 88.3397 5.58614C88.1657 5.52182 87.981 5.45751 87.7856 5.3932C87.5902 5.3289 87.3891 5.25939 87.1823 5.1847C86.9755 5.11001 86.7745 5.02183 86.5791 4.92018C86.3836 4.81852 86.1989 4.70026 86.0249 4.56541C85.8509 4.43055 85.6984 4.2708 85.5673 4.08615C85.4362 3.90151 85.3328 3.68782 85.2572 3.44505C85.1815 3.20229 85.1437 2.9212 85.1437 2.60173C85.1437 2.22413 85.184 1.89842 85.2647 1.62456C85.3454 1.35069 85.4545 1.1173 85.5919 0.924376C85.7293 0.731453 85.8882 0.574789 86.0685 0.454465C86.2488 0.334142 86.4385 0.240778 86.6377 0.174386C86.8369 0.107995 87.0386 0.0623547 87.2428 0.0374602C87.4471 0.0125657 87.6412 0.000116093 87.8253 0.000116093C88.027 0.000116093 88.2344 0.0167156 88.4475 0.0499083C88.6605 0.0831009 88.8705 0.12978 89.0772 0.189951C89.284 0.250122 89.4838 0.319624 89.6767 0.398463C89.8697 0.477302 90.048 0.56029 90.2119 0.647427L90.2119 2.62654ZM97.7484 8.76967V0.217843H103.01V2.04146H99.1894V3.45432H102.813V5.27794H99.1894V6.94598H103.062V8.7696L97.7484 8.76967ZM123.06 7.1514H120.163L119.675 8.76967H118.109L120.829 0.217843H122.394L125.114 8.76967H123.548L123.06 7.1514ZM120.666 5.48335H122.565L121.619 2.334L120.666 5.48335ZM137.877 5.88793C137.877 6.31532 137.813 6.71781 137.685 7.09537C137.556 7.47293 137.363 7.80288 137.106 8.08497C136.849 8.36706 136.528 8.59015 136.143 8.75405C135.759 8.91795 135.309 8.9999 134.795 8.9999C134.28 8.9999 133.83 8.91795 133.443 8.75405C133.056 8.59015 132.734 8.36713 132.476 8.08497C132.219 7.80281 132.026 7.47295 131.898 7.09537C131.769 6.7178 131.705 6.31533 131.705 5.88793V0.217843H133.104V5.06016C133.104 5.34646 133.126 5.61721 133.17 5.87238C133.215 6.12756 133.298 6.35059 133.42 6.54146C133.542 6.73233 133.714 6.88378 133.934 6.99582C134.155 7.10785 134.442 7.16386 134.795 7.16386C135.145 7.16386 135.43 7.10785 135.65 6.99582C135.869 6.88378 136.04 6.73233 136.162 6.54146C136.284 6.35059 136.367 6.12757 136.41 5.87238C136.453 5.6172 136.474 5.34645 136.474 5.06016V0.217843H137.877L137.877 5.88793ZM148.682 4.38171L151.148 8.76967H149.465L147.839 5.88793L146.22 8.76967H144.541L147.003 4.38171L144.662 0.217843H146.345L147.839 2.89416L149.34 0.217843H151.023L148.682 4.38171ZM169.447 2.07887V8.76967H168.044V2.07887H165.839V0.217906H171.656V2.07887H169.447ZM179.764 8.76967H178.361V0.217843H181.878C182.257 0.217843 182.577 0.282157 182.841 0.410784C183.104 0.539412 183.319 0.721985 183.484 0.958501C183.649 1.19502 183.769 1.48028 183.843 1.81432C183.918 2.14836 183.955 2.52075 183.955 2.93151C183.955 3.29251 183.924 3.60786 183.862 3.87758C183.8 4.1473 183.717 4.37861 183.613 4.57158C183.508 4.76455 183.386 4.92739 183.248 5.06016C183.109 5.19294 182.963 5.3029 182.809 5.39004L184.511 8.76966H182.869L181.296 5.62031H179.764L179.764 8.76967ZM182.536 2.91908C182.536 2.7531 182.523 2.61205 182.497 2.49587C182.47 2.37969 182.424 2.28528 182.359 2.21266C182.293 2.14005 182.205 2.08715 182.096 2.05395C181.986 2.02076 181.849 2.00416 181.685 2.00416H179.764V3.83403H181.685C181.849 3.83403 181.986 3.81743 182.096 3.78424C182.206 3.75104 182.293 3.69814 182.359 3.62553C182.424 3.55291 182.47 3.45851 182.497 3.34232C182.523 3.22614 182.536 3.08506 182.536 2.91908ZM191.295 8.76967V0.217843H196.556V2.04146H192.736V3.45432H196.359V5.27794H192.736V6.94598H196.609V8.7696L191.295 8.76967ZM208.529 2.62654C208.431 2.5477 208.301 2.45846 208.139 2.35888C207.978 2.25929 207.795 2.16489 207.591 2.07568C207.387 1.98647 207.165 1.91178 206.925 1.85162C206.686 1.79145 206.44 1.76137 206.188 1.76137C205.986 1.76137 205.814 1.77175 205.671 1.79249C205.529 1.81324 205.409 1.8402 205.312 1.87339C205.215 1.90659 205.138 1.94497 205.081 1.98854C205.025 2.03211 204.981 2.07671 204.951 2.12235C204.921 2.16799 204.901 2.21363 204.892 2.25927C204.883 2.30491 204.879 2.34641 204.879 2.38375C204.879 2.50823 204.917 2.61715 204.993 2.71051C205.068 2.80388 205.172 2.88686 205.303 2.95948C205.434 3.0321 205.586 3.10056 205.76 3.16487C205.934 3.22919 206.119 3.29558 206.314 3.36404C206.51 3.43251 206.712 3.5072 206.92 3.58811C207.128 3.66902 207.329 3.76342 207.525 3.8713C207.72 3.97918 207.905 4.1047 208.079 4.24785C208.253 4.39101 208.405 4.55802 208.537 4.74889C208.668 4.93976 208.771 5.15967 208.847 5.40866C208.922 5.65765 208.96 5.94185 208.96 6.26136C208.96 6.67214 208.916 7.02483 208.828 7.31947C208.739 7.61411 208.622 7.86303 208.474 8.06637C208.327 8.2697 208.156 8.43255 207.962 8.55496C207.767 8.67736 207.564 8.77177 207.351 8.83816C207.138 8.90455 206.922 8.94812 206.704 8.96886C206.486 8.98961 206.279 8.99999 206.082 8.99999C205.568 8.99999 205.092 8.93048 204.654 8.79148C204.217 8.65247 203.83 8.47925 203.495 8.27178V6.23032C203.84 6.54567 204.234 6.79256 204.677 6.97097C205.119 7.14938 205.593 7.2386 206.097 7.2386C206.395 7.2386 206.637 7.21267 206.825 7.1608C207.013 7.10894 207.16 7.04254 207.266 6.96163C207.372 6.88072 207.444 6.79255 207.481 6.69711C207.519 6.60168 207.538 6.51039 207.538 6.42325C207.538 6.28633 207.5 6.16703 207.425 6.06537C207.349 5.96372 207.246 5.87451 207.114 5.79775C206.983 5.72099 206.831 5.65045 206.657 5.58614C206.483 5.52182 206.298 5.45751 206.103 5.3932C205.907 5.3289 205.706 5.25939 205.499 5.1847C205.293 5.11001 205.092 5.02183 204.896 4.92018C204.701 4.81852 204.516 4.70026 204.342 4.56541C204.168 4.43055 204.016 4.2708 203.884 4.08615C203.753 3.90151 203.65 3.68782 203.574 3.44505C203.499 3.20229 203.461 2.9212 203.461 2.60173C203.461 2.22413 203.501 1.89842 203.582 1.62456C203.663 1.35069 203.772 1.1173 203.909 0.924376C204.046 0.731453 204.205 0.574789 204.386 0.454465C204.566 0.334142 204.756 0.240778 204.955 0.174386C205.154 0.107995 205.356 0.0623547 205.56 0.0374602C205.764 0.0125657 205.958 0.000116093 206.142 0.000116093C206.344 0.000116093 206.552 0.0167156 206.765 0.0499083C206.978 0.0831009 207.188 0.12978 207.394 0.189951C207.601 0.250122 207.801 0.319624 207.994 0.398463C208.187 0.477302 208.365 0.56029 208.529 0.647427L208.529 2.62654ZM222.79 4.5C222.79 5.23441 222.708 5.88277 222.545 6.44503C222.381 7.00729 222.146 7.47714 221.841 7.85476C221.536 8.23239 221.166 8.5176 220.731 8.71059C220.296 8.90357 219.807 9 219.265 9C218.723 9 218.233 8.90353 217.796 8.71059C217.358 8.51764 216.986 8.23238 216.678 7.85476C216.371 7.47715 216.134 7.00723 215.967 6.44503C215.801 5.88284 215.718 5.23447 215.718 4.5C215.718 3.76553 215.801 3.11723 215.967 2.55497C216.134 1.99271 216.371 1.52286 216.678 1.14524C216.986 0.767612 217.358 0.482402 217.796 0.289416C218.233 0.0964296 218.723 0 219.265 0C219.807 0 220.296 0.0964742 220.731 0.289416C221.166 0.482358 221.536 0.767624 221.841 1.14524C222.146 1.52285 222.381 1.99277 222.545 2.55497C222.708 3.11716 222.79 3.76553 222.79 4.5ZM221.372 4.5C221.372 4.1805 221.341 3.86202 221.279 3.54463C221.218 3.22723 221.108 2.94194 220.95 2.68881C220.793 2.43568 220.578 2.23031 220.306 2.07263C220.033 1.91495 219.687 1.83612 219.265 1.83612C218.983 1.83612 218.735 1.87242 218.52 1.94504C218.306 2.01766 218.121 2.11828 217.964 2.24691C217.808 2.37554 217.677 2.52596 217.571 2.69816C217.465 2.87036 217.381 3.055 217.318 3.2521C217.255 3.4492 217.21 3.65459 217.183 3.86828C217.157 4.08198 217.144 4.29255 217.144 4.50002C217.144 4.71163 217.157 4.92532 217.183 5.14112C217.21 5.35692 217.255 5.56332 217.318 5.76042C217.381 5.95751 217.465 6.14112 217.571 6.31124C217.677 6.48137 217.808 6.6297 217.964 6.75625C218.121 6.8828 218.306 6.98239 218.52 7.05501C218.735 7.12762 218.983 7.16393 219.265 7.16393C219.687 7.16393 220.033 7.08509 220.306 6.92742C220.578 6.76974 220.793 6.56435 220.95 6.31124C221.108 6.05812 221.218 5.77286 221.279 5.45542C221.341 5.13798 221.372 4.81947 221.372 4.5ZM231.25 8.76967H229.847V0.217843H233.364C233.742 0.217843 234.063 0.282157 234.327 0.410784C234.59 0.539412 234.805 0.721985 234.97 0.958501C235.135 1.19502 235.255 1.48028 235.329 1.81432C235.403 2.14836 235.441 2.52075 235.441 2.93151C235.441 3.29251 235.41 3.60786 235.348 3.87758C235.286 4.1473 235.203 4.37861 235.098 4.57158C234.994 4.76455 234.872 4.92739 234.733 5.06016C234.595 5.19294 234.448 5.3029 234.295 5.39004L235.997 8.76966H234.355L232.782 5.62031H231.25L231.25 8.76967ZM234.022 2.91908C234.022 2.7531 234.009 2.61205 233.983 2.49587C233.956 2.37969 233.91 2.28528 233.845 2.21266C233.779 2.14005 233.691 2.08715 233.582 2.05395C233.472 2.02076 233.335 2.00416 233.171 2.00416H231.25V3.83403H233.171C233.335 3.83403 233.472 3.81743 233.582 3.78424C233.691 3.75104 233.779 3.69814 233.845 3.62553C233.91 3.55291 233.956 3.45851 233.983 3.34232C234.009 3.22614 234.022 3.08506 234.022 2.91908ZM247.569 2.62654C247.471 2.5477 247.341 2.45846 247.179 2.35888C247.018 2.25929 246.835 2.16489 246.631 2.07568C246.427 1.98647 246.205 1.91178 245.965 1.85162C245.726 1.79145 245.48 1.76137 245.228 1.76137C245.026 1.76137 244.854 1.77175 244.711 1.79249C244.569 1.81324 244.449 1.8402 244.352 1.87339C244.255 1.90659 244.178 1.94497 244.121 1.98854C244.065 2.03211 244.021 2.07671 243.991 2.12235C243.961 2.16799 243.941 2.21363 243.932 2.25927C243.923 2.30491 243.919 2.34641 243.919 2.38375C243.919 2.50823 243.957 2.61715 244.032 2.71051C244.108 2.80388 244.211 2.88686 244.343 2.95948C244.474 3.0321 244.626 3.10056 244.8 3.16487C244.974 3.22919 245.159 3.29558 245.354 3.36404C245.55 3.43251 245.751 3.5072 245.959 3.58811C246.168 3.66902 246.369 3.76342 246.565 3.8713C246.76 3.97918 246.945 4.1047 247.119 4.24785C247.293 4.39101 247.445 4.55802 247.576 4.74889C247.707 4.93976 247.811 5.15967 247.887 5.40866C247.962 5.65765 248 5.94185 248 6.26136C248 6.67214 247.956 7.02483 247.868 7.31947C247.779 7.61411 247.661 7.86303 247.514 8.06637C247.366 8.2697 247.196 8.43255 247.002 8.55496C246.807 8.67736 246.604 8.77177 246.391 8.83816C246.178 8.90455 245.962 8.94812 245.744 8.96886C245.526 8.98961 245.318 8.99999 245.122 8.99999C244.607 8.99999 244.131 8.93048 243.694 8.79148C243.256 8.65247 242.87 8.47925 242.535 8.27178V6.23032C242.88 6.54567 243.274 6.79256 243.717 6.97097C244.159 7.14938 244.633 7.2386 245.137 7.2386C245.434 7.2386 245.677 7.21267 245.865 7.1608C246.053 7.10894 246.2 7.04254 246.306 6.96163C246.412 6.88072 246.483 6.79255 246.521 6.69711C246.559 6.60168 246.578 6.51039 246.578 6.42325C246.578 6.28633 246.54 6.16703 246.464 6.06537C246.389 5.96372 246.285 5.87451 246.154 5.79775C246.023 5.72099 245.871 5.65045 245.697 5.58614C245.523 5.52182 245.338 5.45751 245.143 5.3932C244.947 5.3289 244.746 5.25939 244.539 5.1847C244.333 5.11001 244.131 5.02183 243.936 4.92018C243.741 4.81852 243.556 4.70026 243.382 4.56541C243.208 4.43055 243.055 4.2708 242.924 4.08615C242.793 3.90151 242.69 3.68782 242.614 3.44505C242.539 3.20229 242.501 2.9212 242.501 2.60173C242.501 2.22413 242.541 1.89842 242.622 1.62456C242.702 1.35069 242.811 1.1173 242.949 0.924376C243.086 0.731453 243.245 0.574789 243.425 0.454465C243.606 0.334142 243.796 0.240778 243.995 0.174386C244.194 0.107995 244.396 0.0623547 244.6 0.0374602C244.804 0.0125657 244.998 0.000116093 245.182 0.000116093C245.384 0.000116093 245.591 0.0167156 245.804 0.0499083C246.018 0.0831009 246.227 0.12978 246.434 0.189951C246.641 0.250122 246.841 0.319624 247.034 0.398463C247.227 0.477302 247.405 0.56029 247.569 0.647427L247.569 2.62654Z" fill="url(#paint0_linear_456_3644)"/>
<defs>
<linearGradient id="paint0_linear_456_3644" x1="0" y1="0" x2="248" y2="0" gradientUnits="userSpaceOnUse">
<stop stop-color="#FBB040"/>
<stop offset="1" stop-color="#F9ED32"/>
</linearGradient>
</defs>
</svg>
