<svg width="49" height="48" viewBox="0 0 49 48" fill="none" xmlns="http://www.w3.org/2000/svg">
<path d="M24.5022 0C17.9842 0 17.1662 0.0285008 14.6061 0.145002C12.0511 0.262003 10.3071 0.666507 8.78109 1.26001C7.20257 1.87302 5.86356 2.69303 4.52954 4.02754C3.19453 5.36156 2.37452 6.70057 1.75951 8.27859C1.16451 9.8051 0.759502 11.5496 0.644501 14.1036C0.53 16.6637 0.5 17.4822 0.5 24.0002C0.5 30.5183 0.529001 31.3338 0.645002 33.8939C0.762503 36.4489 1.16701 38.1929 1.76001 39.7189C2.37352 41.2974 3.19353 42.6364 4.52804 43.9705C5.86156 45.3055 7.20057 46.1275 8.77809 46.7405C10.3051 47.334 12.0496 47.7385 14.6041 47.8555C17.1642 47.972 17.9817 48.0005 24.4992 48.0005C31.0178 48.0005 31.8333 47.972 34.3934 47.8555C36.9484 47.7385 38.6944 47.334 40.2214 46.7405C41.7994 46.1275 43.1364 45.3055 44.47 43.9705C45.805 42.6364 46.625 41.2974 47.24 39.7194C47.83 38.1929 48.235 36.4484 48.355 33.8944C48.47 31.3343 48.5 30.5183 48.5 24.0002C48.5 17.4822 48.47 16.6642 48.355 14.1041C48.235 11.5491 47.83 9.8051 47.24 8.27909C46.625 6.70057 45.805 5.36156 44.47 4.02754C43.1349 2.69253 41.7999 1.87252 40.2199 1.26001C38.6899 0.666507 36.9449 0.262003 34.3899 0.145002C31.8298 0.0285008 31.0148 0 24.4947 0H24.5022ZM22.3492 4.32504C22.9882 4.32404 23.7012 4.32504 24.5022 4.32504C30.9103 4.32504 31.6698 4.34805 34.2004 4.46305C36.5404 4.57005 37.8104 4.96105 38.6564 5.28956C39.7764 5.72456 40.5749 6.24456 41.4144 7.08457C42.2544 7.92458 42.7744 8.72459 43.2104 9.8446C43.5389 10.6896 43.9305 11.9596 44.0369 14.2996C44.152 16.8297 44.177 17.5897 44.177 23.9947C44.177 30.3998 44.152 31.1598 44.0369 33.6898C43.93 36.0299 43.5389 37.2999 43.2104 38.1449C42.7754 39.2649 42.2544 40.0624 41.4144 40.9019C40.5744 41.7419 39.7769 42.2619 38.6564 42.6969C37.8114 43.0269 36.5404 43.417 34.2004 43.5239C31.6703 43.639 30.9103 43.664 24.5022 43.664C18.0937 43.664 17.3342 43.639 14.8041 43.5239C12.4641 43.4159 11.1941 43.0249 10.3476 42.6964C9.22759 42.2614 8.42758 41.7414 7.58757 40.9014C6.74756 40.0614 6.22756 39.2634 5.79155 38.1429C5.46305 37.2979 5.07155 36.0279 4.96505 33.6879C4.85005 31.1578 4.82704 30.3978 4.82704 23.9887C4.82704 17.5797 4.85005 16.8237 4.96505 14.2936C5.07205 11.9536 5.46305 10.6836 5.79155 9.8376C6.22656 8.71759 6.74756 7.91758 7.58757 7.07757C8.42758 6.23756 9.22759 5.71756 10.3476 5.28155C11.1936 4.95155 12.4641 4.56155 14.8041 4.45405C17.0182 4.35405 17.8762 4.32405 22.3492 4.31905V4.32504ZM37.3134 8.31009C35.7234 8.31009 34.4333 9.5986 34.4333 11.1891C34.4333 12.7791 35.7234 14.0691 37.3134 14.0691C38.9034 14.0691 40.1934 12.7791 40.1934 11.1891C40.1934 9.5991 38.9034 8.30909 37.3134 8.30909V8.31009ZM24.5022 11.6751C17.6957 11.6751 12.1771 17.1937 12.1771 24.0002C12.1771 30.8068 17.6957 36.3229 24.5022 36.3229C31.3088 36.3229 36.8254 30.8068 36.8254 24.0002C36.8254 17.1937 31.3083 11.6751 24.5017 11.6751H24.5022ZM24.5022 16.0002C28.9203 16.0002 32.5023 19.5817 32.5023 24.0002C32.5023 28.4183 28.9203 32.0003 24.5022 32.0003C20.0837 32.0003 16.5022 28.4183 16.5022 24.0002C16.5022 19.5817 20.0837 16.0002 24.5022 16.0002Z" fill="#FBF4A1"/>
</svg>
