<svg width="33" height="32" viewBox="0 0 33 32" fill="none" xmlns="http://www.w3.org/2000/svg">
<path d="M3.65039 30.0817V32H16.4998H29.3491V30.0817V28.1635H16.4998H3.65039V30.0817Z" fill="url(#paint0_linear_456_3638)"/>
<path d="M15.7084 0.83148C14.661 1.0568 13.6622 1.84847 13.2177 2.81065C12.9376 3.41354 12.8462 3.80937 12.8462 4.40617C12.8523 5.97123 13.8754 7.37188 15.3613 7.85297L15.5866 7.93213V14.4055V20.885L15.3613 20.8546C14.2712 20.7023 13.5831 20.5197 12.9558 20.2152C12.2616 19.8863 11.9328 19.5088 11.9328 19.052C11.9328 18.437 12.8949 17.7854 14.2286 17.493L14.6731 17.3956V14.5761V11.7565H11.001H7.32281L5.57505 19.3504C4.61287 23.5341 3.80902 26.9992 3.79684 27.054C3.76639 27.1575 4.39973 27.1636 16.5001 27.1636C28.6004 27.1636 29.2337 27.1575 29.2033 27.054C29.1911 26.9992 28.3873 23.5341 27.419 19.3504L25.6712 11.7565H21.9991H18.327V14.5761V17.3956L18.7715 17.493C20.1052 17.7854 21.0674 18.437 21.0674 19.052C21.0674 19.9046 19.8373 20.5501 17.6449 20.8546L17.4135 20.885V14.4055V7.93213L17.7302 7.82252C19.143 7.35361 20.1478 5.93469 20.1539 4.40617C20.1539 3.79719 20.0626 3.40745 19.7764 2.80456C19.5815 2.39655 19.4292 2.1895 19.0639 1.82411C18.1565 0.916737 16.9507 0.563532 15.7084 0.83148Z" fill="url(#paint1_linear_456_3638)"/>
<defs>
<linearGradient id="paint0_linear_456_3638" x1="16.4998" y1="32" x2="16.4998" y2="28.1635" gradientUnits="userSpaceOnUse">
<stop offset="0.541767" stop-color="#FBF4A1"/>
</linearGradient>
<linearGradient id="paint1_linear_456_3638" x1="16.5001" y1="27.1636" x2="16.5001" y2="0.744106" gradientUnits="userSpaceOnUse">
<stop offset="0.541767" stop-color="#FBF4A1"/>
</linearGradient>
</defs>
</svg>
