<svg width="40" height="40" viewBox="0 0 40 40" fill="none" xmlns="http://www.w3.org/2000/svg">
<path d="M27.5998 9.06667L25.1832 11.4833C28.0665 13.2333 29.9998 16.3833 29.9998 20C29.9998 22.6522 28.9463 25.1957 27.0709 27.0711C25.1955 28.9464 22.652 30 19.9998 30C17.3477 30 14.8041 28.9464 12.9288 27.0711C11.0534 25.1957 9.99984 22.6522 9.99984 20C9.99984 16.3833 11.9332 13.2333 14.7998 11.4667L12.3998 9.06667C8.93317 11.4667 6.6665 15.4667 6.6665 20C6.6665 23.5362 8.07126 26.9276 10.5717 29.4281C13.0722 31.9286 16.4636 33.3333 19.9998 33.3333C23.5361 33.3333 26.9274 31.9286 29.4279 29.4281C31.9284 26.9276 33.3332 23.5362 33.3332 20C33.3332 15.4667 31.0665 11.4667 27.5998 9.06667ZM21.6665 5H18.3332V21.6667H21.6665" fill="#FBF4A1" fill-opacity="0.1"/>
</svg>
