<svg width="21" height="4" viewBox="0 0 21 4" fill="none" xmlns="http://www.w3.org/2000/svg">
<path d="M10.8877 0.736105C11.5781 0.736105 10.3132 0.736105 11.8132 0.736105L19.6377 0.719727C20.3281 0.719727 20.8877 1.27922 20.8877 1.96973C20.8877 2.66024 20.3281 3.21973 19.6377 3.21973H12.1377H9.6377C9.1377 2.63746 11.5781 3.05029 10.8877 3.05029C10.1973 3.05029 9.3877 3.5542 10.3877 3.07006L9.6377 3.21973H2.1377C1.44734 3.21973 0.887695 2.66024 0.887695 1.96973C0.887695 1.27922 1.44734 0.719727 2.1377 0.719727H9.6377C10.6772 0.719727 10.1973 0.736105 10.8877 0.736105Z" fill="#FBF4A1"/>
</svg>
