<svg width="21" height="20" viewBox="0 0 21 20" fill="none" xmlns="http://www.w3.org/2000/svg">
<path d="M10.1128 0C10.8031 0 11.3628 0.559644 11.3628 1.25V8.75H18.8628C19.5532 8.75 20.1128 9.30964 20.1128 10C20.1128 10.6904 19.5532 11.25 18.8628 11.25H11.3628V18.75C11.3628 19.4404 10.8031 20 10.1128 20C9.42244 20 8.86279 19.4404 8.86279 18.75V11.25H1.36279C0.672437 11.25 0.112793 10.6904 0.112793 10C0.112793 9.30964 0.672437 8.75 1.36279 8.75H8.86279V1.25C8.86279 0.559644 9.42244 0 10.1128 0Z" fill="#FBF4A1"/>
</svg>
