<svg width="40" height="40" viewBox="0 0 40 40" fill="none" xmlns="http://www.w3.org/2000/svg">
<path d="M20.0002 25.833C18.4531 25.833 16.9694 25.2184 15.8754 24.1245C14.7815 23.0305 14.1669 21.5468 14.1669 19.9997C14.1669 18.4526 14.7815 16.9688 15.8754 15.8749C16.9694 14.7809 18.4531 14.1663 20.0002 14.1663C21.5473 14.1663 23.031 14.7809 24.125 15.8749C25.219 16.9688 25.8336 18.4526 25.8336 19.9997C25.8336 21.5468 25.219 23.0305 24.125 24.1245C23.031 25.2184 21.5473 25.833 20.0002 25.833ZM32.3836 21.6163C32.4502 21.083 32.5002 20.5497 32.5002 19.9997C32.5002 19.4497 32.4502 18.8997 32.3836 18.333L35.9002 15.6163C36.2169 15.3663 36.3002 14.9163 36.1002 14.5497L32.7669 8.78301C32.5669 8.41634 32.1169 8.26634 31.7502 8.41634L27.6002 10.083C26.7336 9.43301 25.8336 8.86634 24.7836 8.44968L24.1669 4.03301C24.1002 3.63301 23.7502 3.33301 23.3336 3.33301H16.6669C16.2502 3.33301 15.9002 3.63301 15.8336 4.03301L15.2169 8.44968C14.1669 8.86634 13.2669 9.43301 12.4002 10.083L8.25022 8.41634C7.88355 8.26634 7.43355 8.41634 7.23355 8.78301L3.90022 14.5497C3.68355 14.9163 3.78355 15.3663 4.10022 15.6163L7.61689 18.333C7.55022 18.8997 7.50022 19.4497 7.50022 19.9997C7.50022 20.5497 7.55022 21.083 7.61689 21.6163L4.10022 24.383C3.78355 24.633 3.68355 25.083 3.90022 25.4497L7.23355 31.2163C7.43355 31.583 7.88355 31.7163 8.25022 31.583L12.4002 29.8997C13.2669 30.5663 14.1669 31.133 15.2169 31.5497L15.8336 35.9663C15.9002 36.3663 16.2502 36.6663 16.6669 36.6663H23.3336C23.7502 36.6663 24.1002 36.3663 24.1669 35.9663L24.7836 31.5497C25.8336 31.1163 26.7336 30.5663 27.6002 29.8997L31.7502 31.583C32.1169 31.7163 32.5669 31.583 32.7669 31.2163L36.1002 25.4497C36.3002 25.083 36.2169 24.633 35.9002 24.383L32.3836 21.6163Z" fill="#FBF4A1" fill-opacity="0.1"/>
</svg>
