<svg width="35" height="35" viewBox="0 0 35 35" fill="none" xmlns="http://www.w3.org/2000/svg">
<path fill-rule="evenodd" clip-rule="evenodd" d="M4.375 5.46875C3.77094 5.46875 3.28125 5.95844 3.28125 6.5625V8.75C3.28125 9.35406 3.77094 9.84375 4.375 9.84375H6.5625C7.16656 9.84375 7.65625 9.35406 7.65625 8.75V6.5625C7.65625 5.95844 7.16656 5.46875 6.5625 5.46875H4.375ZM6.5625 6.5625H4.375V8.75H6.5625V6.5625Z" fill="#FBF4A1"/>
<path d="M10.9375 7.65625C10.9375 7.05219 11.4272 6.5625 12.0312 6.5625H31.7188C32.3228 6.5625 32.8125 7.05219 32.8125 7.65625C32.8125 8.26031 32.3228 8.75 31.7188 8.75H12.0312C11.4272 8.75 10.9375 8.26031 10.9375 7.65625Z" fill="#FBF4A1"/>
<path d="M12.0312 15.3125C11.4272 15.3125 10.9375 15.8022 10.9375 16.4062C10.9375 17.0103 11.4272 17.5 12.0312 17.5H31.7188C32.3228 17.5 32.8125 17.0103 32.8125 16.4062C32.8125 15.8022 32.3228 15.3125 31.7188 15.3125H12.0312Z" fill="#FBF4A1"/>
<path d="M12.0312 24.0625C11.4272 24.0625 10.9375 24.5522 10.9375 25.1562C10.9375 25.7603 11.4272 26.25 12.0312 26.25H31.7188C32.3228 26.25 32.8125 25.7603 32.8125 25.1562C32.8125 24.5522 32.3228 24.0625 31.7188 24.0625H12.0312Z" fill="#FBF4A1"/>
<path fill-rule="evenodd" clip-rule="evenodd" d="M3.28125 15.3125C3.28125 14.7084 3.77094 14.2188 4.375 14.2188H6.5625C7.16656 14.2188 7.65625 14.7084 7.65625 15.3125V17.5C7.65625 18.1041 7.16656 18.5938 6.5625 18.5938H4.375C3.77094 18.5938 3.28125 18.1041 3.28125 17.5V15.3125ZM4.375 15.3125H6.5625V17.5H4.375V15.3125Z" fill="#FBF4A1"/>
<path fill-rule="evenodd" clip-rule="evenodd" d="M4.375 22.9688C3.77094 22.9688 3.28125 23.4584 3.28125 24.0625V26.25C3.28125 26.8541 3.77094 27.3438 4.375 27.3438H6.5625C7.16656 27.3438 7.65625 26.8541 7.65625 26.25V24.0625C7.65625 23.4584 7.16656 22.9688 6.5625 22.9688H4.375ZM6.5625 24.0625H4.375V26.25H6.5625V24.0625Z" fill="#FBF4A1"/>
</svg>
