<svg width="35" height="35" viewBox="0 0 35 35" fill="none" xmlns="http://www.w3.org/2000/svg">
<path d="M2.1875 5.46875C2.1875 3.65657 3.65657 2.1875 5.46875 2.1875L12.0312 2.1875C13.8434 2.1875 15.3125 3.65657 15.3125 5.46875V12.0312C15.3125 13.8434 13.8434 15.3125 12.0312 15.3125H5.46875C3.65657 15.3125 2.1875 13.8434 2.1875 12.0312L2.1875 5.46875ZM5.46875 4.375C4.86469 4.375 4.375 4.86469 4.375 5.46875V12.0312C4.375 12.6353 4.86469 13.125 5.46875 13.125H12.0312C12.6353 13.125 13.125 12.6353 13.125 12.0312V5.46875C13.125 4.86469 12.6353 4.375 12.0312 4.375H5.46875ZM19.6875 5.46875C19.6875 3.65657 21.1566 2.1875 22.9688 2.1875L29.5312 2.1875C31.3434 2.1875 32.8125 3.65657 32.8125 5.46875V12.0312C32.8125 13.8434 31.3434 15.3125 29.5312 15.3125H22.9688C21.1566 15.3125 19.6875 13.8434 19.6875 12.0312V5.46875ZM22.9688 4.375C22.3647 4.375 21.875 4.86469 21.875 5.46875V12.0312C21.875 12.6353 22.3647 13.125 22.9688 13.125H29.5312C30.1353 13.125 30.625 12.6353 30.625 12.0312V5.46875C30.625 4.86469 30.1353 4.375 29.5312 4.375H22.9688ZM2.1875 22.9688C2.1875 21.1566 3.65657 19.6875 5.46875 19.6875H12.0312C13.8434 19.6875 15.3125 21.1566 15.3125 22.9688V29.5312C15.3125 31.3434 13.8434 32.8125 12.0312 32.8125H5.46875C3.65657 32.8125 2.1875 31.3434 2.1875 29.5312L2.1875 22.9688ZM5.46875 21.875C4.86469 21.875 4.375 22.3647 4.375 22.9688V29.5312C4.375 30.1353 4.86469 30.625 5.46875 30.625H12.0312C12.6353 30.625 13.125 30.1353 13.125 29.5312V22.9688C13.125 22.3647 12.6353 21.875 12.0312 21.875H5.46875ZM19.6875 22.9688C19.6875 21.1566 21.1566 19.6875 22.9688 19.6875H29.5312C31.3434 19.6875 32.8125 21.1566 32.8125 22.9688V29.5312C32.8125 31.3434 31.3434 32.8125 29.5312 32.8125H22.9688C21.1566 32.8125 19.6875 31.3434 19.6875 29.5312V22.9688ZM22.9688 21.875C22.3647 21.875 21.875 22.3647 21.875 22.9688V29.5312C21.875 30.1353 22.3647 30.625 22.9688 30.625H29.5312C30.1353 30.625 30.625 30.1353 30.625 29.5312V22.9688C30.625 22.3647 30.1353 21.875 29.5312 21.875H22.9688Z" fill="#FBF4A1"/>
</svg>
