<svg width="35" height="35" viewBox="0 0 35 35" fill="none" xmlns="http://www.w3.org/2000/svg">
<path fill-rule="evenodd" clip-rule="evenodd" d="M4.375 27.3438C4.375 26.7397 4.86469 26.25 5.46875 26.25H29.5312C30.1353 26.25 30.625 26.7397 30.625 27.3438C30.625 27.9478 30.1353 28.4375 29.5312 28.4375H5.46875C4.86469 28.4375 4.375 27.9478 4.375 27.3438Z" fill="#FBF4A1"/>
<path fill-rule="evenodd" clip-rule="evenodd" d="M4.375 20.7812C4.375 20.1772 4.86469 19.6875 5.46875 19.6875H29.5312C30.1353 19.6875 30.625 20.1772 30.625 20.7812C30.625 21.3853 30.1353 21.875 29.5312 21.875H5.46875C4.86469 21.875 4.375 21.3853 4.375 20.7812Z" fill="#FBF4A1"/>
<path fill-rule="evenodd" clip-rule="evenodd" d="M4.375 14.2188C4.375 13.6147 4.86469 13.125 5.46875 13.125H29.5312C30.1353 13.125 30.625 13.6147 30.625 14.2188C30.625 14.8228 30.1353 15.3125 29.5312 15.3125H5.46875C4.86469 15.3125 4.375 14.8228 4.375 14.2188Z" fill="#FBF4A1"/>
<path fill-rule="evenodd" clip-rule="evenodd" d="M4.375 7.65625C4.375 7.05219 4.86469 6.5625 5.46875 6.5625H29.5312C30.1353 6.5625 30.625 7.05219 30.625 7.65625C30.625 8.26031 30.1353 8.75 29.5312 8.75H5.46875C4.86469 8.75 4.375 8.26031 4.375 7.65625Z" fill="#FBF4A1"/>
</svg>
